<svg width="43" height="43" viewBox="0 0 43 43" fill="none" xmlns="http://www.w3.org/2000/svg">
<g id="Bold Duotone / Arrows / Square Alt Arrow Left">
<path id="Vector" d="M6.20783 36.7932C3.58398 34.1695 3.58398 29.9463 3.58398 21.5004C3.58398 13.0544 3.58398 8.83141 6.20783 6.20758C8.83165 3.58374 13.0547 3.58374 21.5007 3.58374C29.9466 3.58374 34.1697 3.58374 36.7934 6.20758C39.4173 8.83141 39.4173 13.0544 39.4173 21.5004C39.4173 29.9463 39.4173 34.1695 36.7934 36.7932C34.1697 39.4171 29.9466 39.4171 21.5007 39.4171C13.0547 39.4171 8.83165 39.4171 6.20783 36.7932Z" fill="#F8F8F8"/>
<path id="Vector_2" d="M25.1376 25.9249C25.6624 26.4497 25.6624 27.3003 25.1376 27.8251C24.6128 28.3499 23.7622 28.3499 23.2374 27.8251L17.8623 22.4501C17.6103 22.1982 17.4688 21.8564 17.4688 21.5C17.4688 21.1436 17.6103 20.8018 17.8623 20.5499L23.2374 15.1748C23.7622 14.6501 24.6128 14.6501 25.1376 15.1748C25.6624 15.6996 25.6624 16.5504 25.1376 17.0752L20.7129 21.5L25.1376 25.9249Z" fill="#434343"/>
</g>
</svg>
