<svg width="24" height="24" viewBox="0 0 24 24" fill="none" xmlns="http://www.w3.org/2000/svg">
<g id="Linear / Money / Wad Of Money">
<path id="Vector" d="M9.00031 19.0001C6.19139 19.0001 4.78692 19.0001 3.77803 18.326C3.34127 18.0341 2.96627 17.6591 2.67443 17.2224C2.00031 16.2135 2.00031 14.809 2.00031 12.0001C2.00031 9.19119 2.00031 7.78672 2.67443 6.77783C2.96627 6.34107 3.34127 5.96607 3.77803 5.67423C4.78692 5.00011 6.19139 5.00011 9.00031 5.00011H15.0003C17.8092 5.00011 19.2137 5.00011 20.2226 5.67423C20.6593 5.96607 21.0343 6.34107 21.3262 6.77783C22.0003 7.78672 22.0003 9.19119 22.0003 12.0001C22.0003 14.809 22.0003 16.2135 21.3262 17.2224C21.0343 17.6591 20.6593 18.0341 20.2226 18.326C19.2137 19.0001 17.8092 19.0001 15.0003 19.0001H9.00031Z" stroke="#1FA4EF" stroke-width="1.5"/>
<path id="Vector_2" d="M9.00031 9.00011C7.34346 9.00011 6.00031 10.3432 6.00031 12.0001C6.00031 13.657 7.34346 15.0001 9.00031 15.0001" stroke="#1FA4EF" stroke-width="1.5"/>
<path id="Vector_3" d="M15.0003 9.00011C16.6572 9.00011 18.0003 10.3432 18.0003 12.0001C18.0003 13.657 16.6572 15.0001 15.0003 15.0001" stroke="#1FA4EF" stroke-width="1.5"/>
<path id="Vector_4" d="M9.00031 5.00011V18.5001" stroke="#1FA4EF" stroke-width="1.5" stroke-linecap="round"/>
<path id="Vector_5" d="M15.0003 5.00011V18.5001" stroke="#1FA4EF" stroke-width="1.5" stroke-linecap="round"/>
</g>
</svg>
