<svg width="24" height="24" viewBox="0 0 24 24" fill="none" xmlns="http://www.w3.org/2000/svg">
<g id="Linear / Video, Audio, Sound / Repeat">
<path id="Vector" d="M9.50021 19.7501C9.91442 19.7501 10.2502 19.4143 10.2502 19.0001C10.2502 18.5859 9.91442 18.2501 9.50021 18.2501V19.7501ZM11.0002 5.00009V5.75009C11.3035 5.75009 11.577 5.56736 11.6931 5.2871C11.8092 5.00685 11.745 4.68426 11.5305 4.46976L11.0002 5.00009ZM9.53054 2.46976C9.23765 2.17687 8.76277 2.17687 8.46988 2.46976C8.17699 2.76265 8.17699 3.23753 8.46988 3.53042L9.53054 2.46976ZM9.50021 18.2501H9.00049V19.7501H9.50021V18.2501ZM9.00021 5.75009H11.0002V4.25009H9.00021V5.75009ZM11.5305 4.46976L9.53054 2.46976L8.46988 3.53042L10.4699 5.53042L11.5305 4.46976ZM1.25021 12.0001C1.25021 16.2803 4.72032 19.7501 9.00049 19.7501V18.2501C5.54867 18.2501 2.75021 15.4518 2.75021 12.0001H1.25021ZM2.75021 12.0001C2.75021 8.54831 5.54843 5.75009 9.00021 5.75009V4.25009C4.72 4.25009 1.25021 7.71988 1.25021 12.0001H2.75021Z" fill="#CC744E"/>
<path id="Vector_2" d="M13.0002 19.0001V18.2501C12.6969 18.2501 12.4234 18.4328 12.3073 18.7131C12.1912 18.9933 12.2554 19.3159 12.4699 19.5304L13.0002 19.0001ZM14.4699 21.5304C14.7628 21.8233 15.2376 21.8233 15.5305 21.5304C15.8234 21.2375 15.8234 20.7627 15.5305 20.4698L14.4699 21.5304ZM14.5002 4.25009C14.086 4.25009 13.7502 4.58588 13.7502 5.00009C13.7502 5.4143 14.086 5.75009 14.5002 5.75009V4.25009ZM15.0002 18.2501H13.0002V19.7501H15.0002V18.2501ZM12.4699 19.5304L14.4699 21.5304L15.5305 20.4698L13.5305 18.4698L12.4699 19.5304ZM14.5002 5.75009H15.0002V4.25009H14.5002V5.75009ZM21.2502 12.0001C21.2502 15.4519 18.452 18.2501 15.0002 18.2501V19.7501C19.2804 19.7501 22.7502 16.2803 22.7502 12.0001H21.2502ZM22.7502 12.0001C22.7502 7.71988 19.2804 4.25009 15.0002 4.25009V5.75009C18.452 5.75009 21.2502 8.54831 21.2502 12.0001H22.7502Z" fill="#CC744E"/>
</g>
</svg>
