<svg width="14" height="15" viewBox="0 0 14 15" fill="none" xmlns="http://www.w3.org/2000/svg">
<g id="Search">
<path id="Search_2" d="M13.5037 13.2377L11.2121 10.9973L11.1584 10.9156C11.0585 10.8161 10.922 10.7601 10.7795 10.7601C10.6369 10.7601 10.5004 10.8161 10.4005 10.9156C8.453 12.7023 5.45211 12.7994 3.38801 11.1425C1.32392 9.48566 0.837122 6.58895 2.25047 4.37349C3.66381 2.15802 6.53872 1.31127 8.96858 2.3948C11.3984 3.47832 12.6292 6.1559 11.8447 8.65177C11.7882 8.83208 11.8344 9.02816 11.9658 9.16615C12.0973 9.30414 12.2941 9.36308 12.482 9.32077C12.67 9.27845 12.8206 9.14131 12.8771 8.961C13.8149 5.99914 12.3985 2.81174 9.54409 1.46075C6.68967 0.109748 3.2539 1.00059 1.45938 3.55699C-0.335143 6.11338 0.0501296 9.56814 2.36596 11.6864C4.6818 13.8046 8.2332 13.9506 10.7228 12.03L12.7518 14.0137C12.9613 14.2177 13.3001 14.2177 13.5097 14.0137C13.719 13.8068 13.719 13.4738 13.5097 13.2669L13.5037 13.2377Z" fill="#667085"/>
</g>
</svg>
