<svg width="25" height="24" viewBox="0 0 25 24" fill="none" xmlns="http://www.w3.org/2000/svg">
<g id="Bold Duotone / Users / Users Group Two Rounded">
<path id="Vector" d="M16.1816 7.50067C16.1816 9.43367 14.6146 11.0007 12.6816 11.0007C10.7486 11.0007 9.18164 9.43367 9.18164 7.50067C9.18164 5.56767 10.7486 4.00067 12.6816 4.00067C14.6146 4.00067 16.1816 5.56767 16.1816 7.50067Z" fill="white"/>
<path id="Vector_2" opacity="0.4" d="M20.1816 7.50067C20.1816 8.88138 19.0623 10.0007 17.6816 10.0007C16.3009 10.0007 15.1816 8.88138 15.1816 7.50067C15.1816 6.11996 16.3009 5.00067 17.6816 5.00067C19.0623 5.00067 20.1816 6.11996 20.1816 7.50067Z" fill="white"/>
<path id="Vector_3" opacity="0.4" d="M5.18164 7.50067C5.18164 8.88138 6.30093 10.0007 7.68164 10.0007C9.06235 10.0007 10.1816 8.88138 10.1816 7.50067C10.1816 6.11996 9.06235 5.00067 7.68164 5.00067C6.30093 5.00067 5.18164 6.11996 5.18164 7.50067Z" fill="white"/>
<path id="Vector_4" d="M18.6816 16.5007C18.6816 18.4337 15.9953 20.0007 12.6816 20.0007C9.36793 20.0007 6.68164 18.4337 6.68164 16.5007C6.68164 14.5677 9.36793 13.0007 12.6816 13.0007C15.9953 13.0007 18.6816 14.5677 18.6816 16.5007Z" fill="white"/>
<path id="Vector_5" opacity="0.4" d="M22.6816 16.5007C22.6816 17.8814 20.8907 19.0007 18.6816 19.0007C16.4725 19.0007 14.6816 17.8814 14.6816 16.5007C14.6816 15.12 16.4725 14.0007 18.6816 14.0007C20.8907 14.0007 22.6816 15.12 22.6816 16.5007Z" fill="white"/>
<path id="Vector_6" opacity="0.4" d="M2.68164 16.5007C2.68164 17.8814 4.4725 19.0007 6.68164 19.0007C8.89078 19.0007 10.6816 17.8814 10.6816 16.5007C10.6816 15.12 8.89078 14.0007 6.68164 14.0007C4.4725 14.0007 2.68164 15.12 2.68164 16.5007Z" fill="white"/>
</g>
</svg>
