<svg width="22" height="22" viewBox="0 0 22 22" fill="none" xmlns="http://www.w3.org/2000/svg">
<g id="Notifications">
<path id="Vector" d="M11.0415 2.86203C8.06989 2.86203 5.65489 5.27703 5.65489 8.24865V10.8432C5.65489 11.3908 5.42147 12.2258 5.14316 12.6926L4.11073 14.4073C3.47331 15.4667 3.91322 16.6428 5.08032 17.0378C8.94971 18.3306 13.1243 18.3306 16.9937 17.0378C18.08 16.6787 18.5558 15.3949 17.9633 14.4073L16.9309 12.6926C16.6615 12.2258 16.4281 11.3908 16.4281 10.8432V8.24865C16.4281 5.28601 14.0041 2.86203 11.0415 2.86203Z" stroke="#0A1C2E" stroke-width="1.34665" stroke-miterlimit="10" stroke-linecap="round"/>
<path id="Vector_2" d="M12.7028 3.1231C11.6172 2.8139 10.4667 2.8139 9.38107 3.1231C9.64143 2.45875 10.2878 1.99191 11.0419 1.99191C11.7961 1.99191 12.4425 2.45875 12.7028 3.1231Z" stroke="#0A1C2E" stroke-width="1.34665" stroke-miterlimit="10" stroke-linecap="round" stroke-linejoin="round"/>
<path id="Vector_3" d="M13.7335 17.3611C13.7335 18.8424 12.5215 20.0544 11.0402 20.0544C10.304 20.0544 9.62173 19.7491 9.13693 19.2643C8.63252 18.7592 8.3485 18.0749 8.34689 17.3611" stroke="#0A1C2E" stroke-width="1.34665" stroke-miterlimit="10"/>
</g>
</svg>
