<svg width="25" height="24" viewBox="0 0 25 24" fill="none" xmlns="http://www.w3.org/2000/svg">
<g id="Bold Duotone / Shopping, Ecommerce / Cart Large Minimalistic">
<path id="Vector" fill-rule="evenodd" clip-rule="evenodd" d="M3.72162 2.29309C3.33085 2.1557 2.9027 2.36111 2.76532 2.75187C2.62793 3.14264 2.83334 3.57079 3.2241 3.70817L3.48531 3.80001C4.15292 4.03473 4.59167 4.19028 4.91452 4.34869C5.21774 4.49747 5.35141 4.6179 5.43947 4.74676C5.52973 4.87885 5.59943 5.06027 5.63876 5.42362C5.67992 5.80383 5.68094 6.29904 5.68094 7.03899V9.64067H21.4051C21.7356 7.98312 21.8907 7.14109 21.4573 6.57775C21.0134 6.00067 19.4966 6.00067 17.8117 6.00067H7.17348C7.16679 5.73034 7.15411 5.4844 7.13005 5.2622C7.07632 4.76582 6.95991 4.3131 6.67793 3.90046C6.39375 3.4846 6.0159 3.21826 5.57527 3.00206C5.16318 2.79986 4.63955 2.61578 4.02302 2.39905L3.72162 2.29309Z" fill="white"/>
<path id="Vector_2" opacity="0.5" d="M20.8815 12.1881L21.3813 9.76331L21.4058 9.64056H5.68164C5.68164 12.5822 5.74488 13.5529 6.61128 14.4668C7.47768 15.3806 8.87213 15.3806 11.661 15.3806H16.9639C18.5249 15.3806 19.3054 15.3806 19.8571 14.931C20.4089 14.4814 20.5664 13.7169 20.8815 12.1881Z" fill="white"/>
<path id="Vector_3" d="M8.18164 18.0007C9.01007 18.0007 9.68164 18.6723 9.68164 19.5007C9.68164 20.3291 9.01007 21.0007 8.18164 21.0007C7.35321 21.0007 6.68164 20.3291 6.68164 19.5007C6.68164 18.6723 7.35321 18.0007 8.18164 18.0007Z" fill="white"/>
<path id="Vector_4" d="M17.1816 18.0008C18.01 18.0008 18.6816 18.6723 18.6816 19.5008C18.6816 20.3292 18.01 21.0008 17.1816 21.0008C16.3532 21.0008 15.6816 20.3292 15.6816 19.5008C15.6816 18.6723 16.3532 18.0008 17.1816 18.0008Z" fill="white"/>
</g>
</svg>
