<svg width="25" height="24" viewBox="0 0 25 24" fill="none" xmlns="http://www.w3.org/2000/svg">
<g id="Bold Duotone / Essentional, UI / Box Minimalistic">
<path id="Vector" d="M9.10393 20.6188C10.8595 21.5402 11.7373 22.0008 12.6816 22.0008V12.0008L3.31966 7.07343C3.30587 7.09559 3.29234 7.11795 3.27904 7.14054C2.68164 8.15504 2.68164 9.41745 2.68164 11.9423V12.0593C2.68164 14.5841 2.68164 15.8466 3.27904 16.8611C3.87643 17.8756 4.95227 18.4402 7.10393 19.5693L9.10393 20.6188Z" fill="white"/>
<path id="Vector_2" opacity="0.7" d="M18.259 4.43219L16.259 3.38264C14.5034 2.46133 13.6256 2.00067 12.6813 2.00067C11.737 2.00067 10.8592 2.46133 9.10361 3.38264L7.10361 4.43219C4.99985 5.53619 3.92455 6.10049 3.31934 7.07331L12.6813 12.0007L22.0433 7.07331C21.438 6.10049 20.3627 5.53619 18.259 4.43219Z" fill="white"/>
<path id="Vector_3" opacity="0.5" d="M22.0842 7.14054C22.0709 7.11795 22.0574 7.09559 22.0436 7.07343L12.6816 12.0008V22.0008C13.6259 22.0008 14.5037 21.5402 16.2593 20.6188L18.2593 19.5693C20.411 18.4402 21.4868 17.8756 22.0842 16.8611C22.6816 15.8466 22.6816 14.5841 22.6816 12.0593V11.9423C22.6816 9.41745 22.6816 8.15504 22.0842 7.14054Z" fill="white"/>
</g>
</svg>
