<svg width="25" height="24" viewBox="0 0 25 24" fill="none" xmlns="http://www.w3.org/2000/svg">
<g id="Bold Duotone / Time / Calendar">
<path id="Vector" d="M7.62192 2.00067C8.03778 2.00067 8.3749 2.32488 8.3749 2.72481V4.18554C9.04281 4.17308 9.79147 4.17308 10.6338 4.17308H14.6497C15.492 4.17308 16.2407 4.17308 16.9086 4.18554V2.72481C16.9086 2.32488 17.2457 2.00067 17.6616 2.00067C18.0774 2.00067 18.4146 2.32488 18.4146 2.72481V4.24961C19.8596 4.36089 20.8083 4.634 21.5052 5.30426C22.2022 5.97452 22.4862 6.88683 22.6019 8.27653L22.6816 9.00067H3.6062H2.68164V8.27653C2.79735 6.88683 3.08134 5.97452 3.77829 5.30426C4.47525 4.634 5.4239 4.36089 6.86894 4.24961V2.72481C6.86894 2.32488 7.20606 2.00067 7.62192 2.00067Z" fill="white"/>
<path id="Vector_2" opacity="0.5" d="M22.6811 14.0008V12.0008C22.6811 11.1617 22.6779 9.66594 22.665 9.00067H2.6908C2.67789 9.66594 2.68116 11.1617 2.68116 12.0008V14.0008C2.68116 17.772 2.68116 19.6576 3.85273 20.8292C5.0243 22.0008 6.90992 22.0008 10.6812 22.0008H14.6811C18.4524 22.0008 20.338 22.0008 21.5096 20.8292C22.6811 19.6576 22.6811 17.772 22.6811 14.0008Z" fill="white"/>
<path id="Vector_3" d="M18.6816 17.0007C18.6816 17.553 18.2339 18.0007 17.6816 18.0007C17.1293 18.0007 16.6816 17.553 16.6816 17.0007C16.6816 16.4484 17.1293 16.0007 17.6816 16.0007C18.2339 16.0007 18.6816 16.4484 18.6816 17.0007Z" fill="white"/>
<path id="Vector_4" d="M18.6816 13.0007C18.6816 13.553 18.2339 14.0007 17.6816 14.0007C17.1293 14.0007 16.6816 13.553 16.6816 13.0007C16.6816 12.4484 17.1293 12.0007 17.6816 12.0007C18.2339 12.0007 18.6816 12.4484 18.6816 13.0007Z" fill="white"/>
<path id="Vector_5" d="M13.6816 17.0007C13.6816 17.553 13.2339 18.0007 12.6816 18.0007C12.1293 18.0007 11.6816 17.553 11.6816 17.0007C11.6816 16.4484 12.1293 16.0007 12.6816 16.0007C13.2339 16.0007 13.6816 16.4484 13.6816 17.0007Z" fill="white"/>
<path id="Vector_6" d="M13.6816 13.0007C13.6816 13.553 13.2339 14.0007 12.6816 14.0007C12.1293 14.0007 11.6816 13.553 11.6816 13.0007C11.6816 12.4484 12.1293 12.0007 12.6816 12.0007C13.2339 12.0007 13.6816 12.4484 13.6816 13.0007Z" fill="white"/>
<path id="Vector_7" d="M8.68164 17.0007C8.68164 17.553 8.23392 18.0007 7.68164 18.0007C7.12936 18.0007 6.68164 17.553 6.68164 17.0007C6.68164 16.4484 7.12936 16.0007 7.68164 16.0007C8.23392 16.0007 8.68164 16.4484 8.68164 17.0007Z" fill="white"/>
<path id="Vector_8" d="M8.68164 13.0007C8.68164 13.553 8.23392 14.0007 7.68164 14.0007C7.12936 14.0007 6.68164 13.553 6.68164 13.0007C6.68164 12.4484 7.12936 12.0007 7.68164 12.0007C8.23392 12.0007 8.68164 12.4484 8.68164 13.0007Z" fill="white"/>
</g>
</svg>
